<?xml version="1.0" encoding="UTF-8"?>
<!-- Created with Inkscape (http://www.inkscape.org/) -->
<svg width="400" height="401.33" version="1.1" viewBox="0 0 400 401.33334" xmlns="http://www.w3.org/2000/svg" xmlns:cc="http://creativecommons.org/ns#" xmlns:dc="http://purl.org/dc/elements/1.1/" xmlns:rdf="http://www.w3.org/1999/02/22-rdf-syntax-ns#">
 <metadata>
  <rdf:RDF>
   <cc:Work rdf:about="">
    <dc:format>image/svg+xml</dc:format>
    <dc:type rdf:resource="http://purl.org/dc/dcmitype/StillImage"/>
    <dc:title/>
   </cc:Work>
  </rdf:RDF>
 </metadata>
 <g stroke-width="1.2827">
  <path d="m64.46 375.1v-16.034h-9.6785c-8.5657 0-10.041-0.36201-12.827-3.1484-2.821-2.821-3.1484-4.2217-3.1484-13.468v-10.32h-32.067v-24.371h32.067v-14.11h-32.067v-24.371h32.067v-14.11h-32.067v-24.371h32.067v-16.675h-32.067v-24.371h32.067v-15.392h-32.067v-24.371h32.067v-17.958h-32.067v-24.371h32.067v-17.958h-32.067v-24.371h32.067v-10.32c0-9.2466 0.32743-10.647 3.1484-13.468 2.7864-2.7864 4.2613-3.1484 12.827-3.1484h9.6785v-33.35h25.654v33.35h16.675v-33.35h25.654v33.35h16.675v-33.35h25.654v33.35h14.11v-33.35h25.654v33.35h15.392v-33.35h25.654v33.35h12.827v-33.35h25.654v33.35h12.827v-33.35h25.654v33.35h10.32c9.2466 0 10.647 0.32743 13.468 3.1484 2.821 2.821 3.1484 4.2217 3.1484 13.468v10.32h32.067v24.371h-32.067v17.958h32.067v24.371h-32.067v17.958h32.067v24.371h-32.067v15.392h32.067v24.371h-32.067v16.675h32.067v24.371h-32.067v14.11h32.067v24.371h-32.067v14.11h32.067v24.371h-32.067v10.32c0 9.2466-0.32742 10.647-3.1484 13.468-2.821 2.821-4.2217 3.1484-13.468 3.1484h-10.32v32.067h-25.654v-32.067h-12.827v32.067h-25.654v-32.067h-12.827v32.067h-25.654v-32.067h-15.392v32.067h-25.654v-32.067h-14.11v32.067h-25.654v-32.067h-16.675v32.067h-25.654v-32.067h-16.675v32.067h-25.654zm255.93-49.633c7.2896-3.3214 7.019 1.5612 7.019-126.61 0-88.763-0.37979-118.84-1.5324-121.37-3.3215-7.29 1.5722-7.019-126.74-7.019-128.31 0-123.42-0.27102-126.74 7.019-2.2057 4.841-2.2093 237.65-0.0037 242.49 3.2806 7.2002-1.7892 6.9203 126.36 6.9759 89.056 0.0387 119.1-0.32713 121.63-1.481zm-240.54-7.4464c-2.5278-2.5278-2.5654-4.2757-2.5654-119.29 0-115.01 0.03752-116.76 2.5654-119.29 2.5278-2.5278 4.2756-2.5654 119.29-2.5654 115.01 0 116.76 0.03759 119.29 2.5654 2.5278 2.5278 2.5654 4.2756 2.5654 119.29 0 115.01-0.0375 116.76-2.5654 119.29-2.5278 2.5278-4.2756 2.5654-119.29 2.5654-115.01 0-116.76-0.0375-119.29-2.5654z" fill="#fefefe"/>
  <path d="m41.955 355.92-3.1484-3.1484v-308.08l3.1484-3.1484 3.1484-3.1484h308.08l3.1484 3.1484 3.1484 3.1484v308.08l-3.1484 3.1484-3.1484 3.1484h-308.08zm278.44-30.451c7.2896-3.3214 7.019 1.5612 7.019-126.61 0-88.763-0.37979-118.84-1.5324-121.37-3.3215-7.29 1.5722-7.019-126.74-7.019-128.31 0-123.42-0.27102-126.74 7.019-2.2057 4.841-2.2093 237.65-0.0037 242.49 3.2806 7.2002-1.7892 6.9203 126.36 6.9759 89.056 0.0387 119.1-0.32713 121.63-1.481zm-240.54-7.4464c-2.5278-2.5278-2.5654-4.2757-2.5654-119.29 0-115.01 0.03752-116.76 2.5654-119.29 2.5278-2.5278 4.2756-2.5654 119.29-2.5654 115.01 0 116.76 0.03759 119.29 2.5654 2.5278 2.5278 2.5654 4.2756 2.5654 119.29 0 115.01-0.0375 116.76-2.5654 119.29-2.5278 2.5278-4.2756 2.5654-119.29 2.5654-115.01 0-116.76-0.0375-119.29-2.5654z" fill="#70A7FF"/>
  <path d="m41.955 355.92-3.1484-3.1484v-308.08l3.1484-3.1484 3.1484-3.1484h308.08l3.1484 3.1484 3.1484 3.1484v308.08l-3.1484 3.1484-3.1484 3.1484h-308.08zm278.44-30.451c7.2896-3.3214 7.019 1.5612 7.019-126.61 0-88.763-0.37979-118.84-1.5324-121.37-3.3215-7.29 1.5722-7.019-126.74-7.019-128.31 0-123.42-0.27102-126.74 7.019-2.2057 4.841-2.2093 237.65-0.0037 242.49 3.2806 7.2002-1.7892 6.9203 126.36 6.9759 89.056 0.0387 119.1-0.32713 121.63-1.481zm-240.54-7.4464c-2.5278-2.5278-2.5654-4.2757-2.5654-119.29 0-115.01 0.03752-116.76 2.5654-119.29 2.5278-2.5278 4.2756-2.5654 119.29-2.5654 115.01 0 116.76 0.03759 119.29 2.5654 2.5278 2.5278 2.5654 4.2756 2.5654 119.29 0 115.01-0.0375 116.76-2.5654 119.29-2.5278 2.5278-4.2756 2.5654-119.29 2.5654-115.01 0-116.76-0.0375-119.29-2.5654zm117.37-120.57 96.196-96.202h-193.04v96.202c0 52.911 0.14574 96.202 0.32389 96.202 0.17813 0 43.612-43.291 96.52-96.202zm93.094 92.453c7.9833-7.9833 2.4199-20.622-9.0775-20.622-4.1787 0-6.137 0.80883-9.0775 3.7494-7.9833 7.9833-2.4199 20.622 9.0775 20.622 4.1787 0 6.137-0.80884 9.0775-3.7494z" fill="#4477C9"/>
 </g>
</svg>
