<?xml version="1.0" encoding="UTF-8"?>
<!-- Created with Inkscape (http://www.inkscape.org/) -->
<svg width="400" height="401.33" version="1.1" viewBox="0 0 400 401.33334" xmlns="http://www.w3.org/2000/svg" xmlns:cc="http://creativecommons.org/ns#" xmlns:dc="http://purl.org/dc/elements/1.1/" xmlns:rdf="http://www.w3.org/1999/02/22-rdf-syntax-ns#">
 <metadata>
  <rdf:RDF>
   <cc:Work rdf:about="">
    <dc:format>image/svg+xml</dc:format>
    <dc:type rdf:resource="http://purl.org/dc/dcmitype/StillImage"/>
    <dc:title/>
   </cc:Work>
  </rdf:RDF>
 </metadata>
 <g stroke-width="1.3052">
  <path d="m63.69 381.28v-16.315h-9.8484c-8.7161 0-10.217-0.36835-13.052-3.2037-2.8705-2.8705-3.2037-4.2958-3.2037-13.705v-10.501h-32.63v-24.799h32.63v-14.357h-32.63v-24.799h32.63v-14.357h-32.63v-24.799h32.63v-16.968h-32.63v-24.799h32.63v-15.663h-32.63v-24.799h32.63v-18.273h-32.63v-24.799h32.63v-18.273h-32.63v-24.799h32.63v-10.501c0-9.409 0.33318-10.834 3.2037-13.705 2.8353-2.8353 4.3361-3.2037 13.052-3.2037h9.8484v-33.936h26.104v33.936h16.968v-33.936h26.104v33.936h16.968v-33.936h26.104v33.936h14.357v-33.936h26.104v33.936h15.663v-33.936h26.104v33.936h13.052v-33.936h26.104v33.936h13.052v-33.936h26.104v33.936h10.501c9.409 0 10.834 0.33318 13.705 3.2037 2.8705 2.8705 3.2037 4.2958 3.2037 13.705v10.501h32.63v24.799h-32.63v18.273h32.63v24.799h-32.63v18.273h32.63v24.799h-32.63v15.663h32.63v24.799h-32.63v16.968h32.63v24.799h-32.63v14.357h32.63v24.799h-32.63v14.357h32.63v24.799h-32.63v10.501c0 9.409-0.33317 10.834-3.2037 13.705-2.8705 2.8705-4.2958 3.2037-13.705 3.2037h-10.501v32.63h-26.104v-32.63h-13.052v32.63h-26.104v-32.63h-13.052v32.63h-26.104v-32.63h-15.663v32.63h-26.104v-32.63h-14.357v32.63h-26.104v-32.63h-16.968v32.63h-26.104v-32.63h-16.968v32.63h-26.104zm260.43-50.505c7.4176-3.3797 7.1422 1.5886 7.1422-128.84 0-90.321-0.38645-120.93-1.5593-123.51-3.3798-7.418 1.5998-7.1422-128.96-7.1422-130.56 0-125.58-0.27578-128.96 7.1422-2.2444 4.926-2.2481 241.82-0.0038 246.75 3.3382 7.3266-1.8206 7.0418 128.58 7.0984 90.62 0.0393 121.19-0.33289 123.77-1.5071zm-244.76-7.5772c-2.5722-2.5722-2.6104-4.3507-2.6104-121.38 0-117.03 0.03824-118.81 2.6104-121.38 2.5722-2.5722 4.3507-2.6104 121.38-2.6104 117.03 0 118.81 0.03824 121.38 2.6104 2.5722 2.5722 2.6104 4.3507 2.6104 121.38 0 117.03-0.0383 118.81-2.6104 121.38-2.5722 2.5722-4.3507 2.6104-121.38 2.6104-117.03 0-118.81-0.0383-121.38-2.6104z" fill="#fefefe"/>
  <path d="m40.79 361.76-3.2037-3.2037v-313.49l3.2037-3.2037 3.2037-3.2037h313.49l3.2037 3.2037 3.2037 3.2037v313.49l-3.2037 3.2037-3.2037 3.2037h-313.49zm283.33-30.986c7.4176-3.3797 7.1422 1.5886 7.1422-128.84 0-90.321-0.38645-120.93-1.5593-123.51-3.3798-7.418 1.5998-7.1422-128.96-7.1422-130.56 0-125.58-0.27578-128.96 7.1422-2.2444 4.926-2.2481 241.82-0.0038 246.75 3.3382 7.3266-1.8206 7.0418 128.58 7.0984 90.62 0.0393 121.19-0.33289 123.77-1.5071zm-244.76-7.5772c-2.5722-2.5722-2.6104-4.3507-2.6104-121.38 0-117.03 0.03824-118.81 2.6104-121.38 2.5722-2.5722 4.3507-2.6104 121.38-2.6104 117.03 0 118.81 0.03824 121.38 2.6104 2.5722 2.5722 2.6104 4.3507 2.6104 121.38 0 117.03-0.0383 118.81-2.6104 121.38-2.5722 2.5722-4.3507 2.6104-121.38 2.6104-117.03 0-118.81-0.0383-121.38-2.6104z" fill="#9accf7"/>
  <path d="m40.79 361.76-3.2037-3.2037v-313.49l3.2037-3.2037 3.2037-3.2037h313.49l3.2037 3.2037 3.2037 3.2037v313.49l-3.2037 3.2037-3.2037 3.2037h-313.49zm283.33-30.986c7.4176-3.3797 7.1422 1.5886 7.1422-128.84 0-90.321-0.38645-120.93-1.5593-123.51-3.3798-7.418 1.5998-7.1422-128.96-7.1422-130.56 0-125.58-0.27578-128.96 7.1422-2.2444 4.926-2.2481 241.82-0.0038 246.75 3.3382 7.3266-1.8206 7.0418 128.58 7.0984 90.62 0.0393 121.19-0.33289 123.77-1.5071zm-244.76-7.5772c-2.5722-2.5722-2.6104-4.3507-2.6104-121.38 0-117.03 0.03824-118.81 2.6104-121.38 2.5722-2.5722 4.3507-2.6104 121.38-2.6104 117.03 0 118.81 0.03824 121.38 2.6104 2.5722 2.5722 2.6104 4.3507 2.6104 121.38 0 117.03-0.0383 118.81-2.6104 121.38-2.5722 2.5722-4.3507 2.6104-121.38 2.6104-117.03 0-118.81-0.0383-121.38-2.6104zm119.43-122.69 97.884-97.891h-196.43v97.891c0 53.84 0.14831 97.891 0.32957 97.891s44.378-44.051 98.214-97.891zm94.728 94.076c8.1234-8.1234 2.4624-20.984-9.2369-20.984-4.2521 0-6.2447 0.82304-9.2369 3.8152-8.1234 8.1234-2.4624 20.984 9.2369 20.984 4.2521 0 6.2447-0.82304 9.2369-3.8152z" fill="#4da1e9"/>
 </g>
</svg>
